<?xml version="1.0" encoding="UTF-8"?> <svg xmlns="http://www.w3.org/2000/svg" width="171" height="55" viewBox="0 0 171 55" fill="none"><path d="M61.7656 15.666V14.1178H69.1301V15.6757C69.0531 15.6757 68.9568 15.666 68.8701 15.6563C68.7739 15.6563 68.6487 15.6563 68.4851 15.6563C67.9556 15.6563 67.5994 15.7531 67.4261 15.9369C67.2528 16.1208 67.1566 16.6336 67.1566 17.4851V22.42C67.1566 23.3586 67.3299 24.0263 67.6764 24.4133C68.023 24.8004 68.591 24.9939 69.39 24.9939C70.3527 24.9939 71.0362 24.8101 71.4501 24.4327C71.8641 24.065 72.0662 23.436 72.0662 22.5652V17.5625C72.0662 16.7207 71.9796 16.1982 71.7967 15.9756C71.6138 15.7531 71.248 15.6466 70.6992 15.6466C70.5645 15.6466 70.4682 15.6466 70.3912 15.6466C70.3142 15.6466 70.2564 15.6466 70.1986 15.666V14.1081H75.994V15.666C75.503 15.666 75.1275 15.6853 74.8676 15.7337C74.6077 15.7821 74.4344 15.8595 74.3478 15.9659C74.29 16.024 74.2515 16.1498 74.2323 16.3336C74.213 16.5175 74.1938 16.9336 74.1938 17.5819V22.7974C74.1938 24.1134 73.7317 25.1197 72.8075 25.797C71.8833 26.4841 70.526 26.8227 68.745 26.8227C67.1181 26.8227 65.8473 26.4841 64.9424 25.8067C64.0375 25.1294 63.585 24.1714 63.585 22.9425V17.5238C63.585 16.7594 63.4984 16.2562 63.3251 16.0143C63.1518 15.7724 62.8245 15.6466 62.3432 15.6466C62.2084 15.6466 62.0929 15.6466 62.0159 15.6466C61.9292 15.6466 61.8618 15.6466 61.7848 15.6466" fill="#1A1414"></path><path d="M77.9387 19.6238C77.9387 19.2948 77.8906 19.0819 77.7847 18.9948C77.6788 18.9078 77.4478 18.8691 77.0916 18.8691H76.6102V17.7273H81.0097L84.5427 23.8136V19.6335C84.5427 19.3045 84.4946 19.0916 84.3887 19.0045C84.2828 18.9174 84.0517 18.8787 83.6955 18.8787H83.1757V17.7369H87.373V18.8787H86.9398C86.574 18.8787 86.3525 18.9271 86.2466 19.0045C86.1407 19.0916 86.0926 19.3045 86.0926 19.6335V26.4649H83.2623L79.4886 19.9722V24.5587C79.4886 24.8877 79.5368 25.1006 79.6427 25.1877C79.7486 25.2748 79.9796 25.3135 80.3358 25.3135H80.8556V26.4553H76.6006V25.3135H77.0819C77.4478 25.3135 77.6788 25.2748 77.7751 25.1877C77.881 25.1006 77.9291 24.8877 77.9291 24.5587V19.6335L77.9387 19.6238Z" fill="#1A1414"></path><path d="M87.8444 26.4456V25.3038H88.4027C88.7589 25.3038 88.99 25.2651 89.0862 25.178C89.1825 25.0909 89.2403 24.8877 89.2403 24.549V19.6238C89.2403 19.2851 89.1921 19.0723 89.0862 18.9948C88.99 18.9078 88.7589 18.8691 88.4027 18.8691H87.8444V17.7273H93.2739V18.8691H92.7155C92.3497 18.8691 92.1187 18.9078 92.0224 18.9948C91.9165 19.0819 91.8684 19.2851 91.8684 19.6238V24.549C91.8684 24.878 91.9165 25.0909 92.0224 25.178C92.1283 25.2651 92.3593 25.3038 92.7155 25.3038H93.2739V26.4456H87.8444Z" fill="#1A1414"></path><path d="M99.7622 26.4449H97.1918L94.8622 19.865C94.7081 19.4296 94.5349 19.149 94.3519 19.0232C94.169 18.8974 93.8706 18.8296 93.4663 18.82V17.7169H98.607V18.82C98.53 18.82 98.4626 18.82 98.3856 18.82C98.3085 18.82 98.2027 18.82 98.0775 18.82C97.7887 18.82 97.5865 18.849 97.471 18.907C97.3555 18.9651 97.3074 19.0715 97.3074 19.2264C97.3074 19.2844 97.317 19.3715 97.3459 19.4683C97.3748 19.565 97.4325 19.7392 97.5095 19.9714L98.9632 24.229L100.523 19.7682C100.59 19.565 100.638 19.4296 100.657 19.3522C100.677 19.2844 100.686 19.2264 100.686 19.178C100.686 19.0522 100.619 18.9651 100.494 18.907C100.359 18.849 100.157 18.82 99.897 18.82C99.7814 18.82 99.7044 18.82 99.637 18.82C99.5793 18.82 99.5215 18.82 99.4734 18.82V17.7169H103.469V18.82C103.045 18.82 102.727 18.9167 102.515 19.0812C102.313 19.2554 102.13 19.5941 101.976 20.1069L99.7622 26.4352V26.4449Z" fill="#1A1414"></path><path d="M103.689 26.4456V25.3038H104.2C104.556 25.3038 104.787 25.2651 104.883 25.178C104.979 25.0909 105.037 24.8877 105.037 24.549V19.6238C105.037 19.2851 104.989 19.0723 104.883 18.9948C104.787 18.9078 104.556 18.8691 104.2 18.8691H103.689V17.7273H112.787V21.0559H111.583C111.506 20.5527 111.42 20.1657 111.314 19.9044C111.208 19.6432 111.073 19.44 110.909 19.2948C110.736 19.14 110.524 19.0336 110.255 18.9755C109.985 18.9078 109.504 18.8787 108.811 18.8787H107.617V21.3655H107.848C108.358 21.3655 108.695 21.2688 108.869 21.0946C109.042 20.9108 109.128 20.5431 109.128 19.9915H110.284V23.9685H109.128C109.119 23.3589 109.032 22.9621 108.869 22.7783C108.714 22.5944 108.368 22.5073 107.848 22.5073H107.617V25.3231H108.849C109.86 25.3231 110.544 25.1586 110.89 24.8296C111.246 24.5007 111.477 23.8427 111.574 22.8654H112.777V26.4649H103.68L103.689 26.4456Z" fill="#1A1414"></path><path d="M117.869 24.5488C117.869 24.8778 117.918 25.0907 118.024 25.1778C118.129 25.2649 118.36 25.3132 118.726 25.3132H119.217V26.455H113.951V25.3132H114.462C114.818 25.3132 115.049 25.2745 115.145 25.1874C115.251 25.1004 115.299 24.8972 115.299 24.5585V19.6333C115.299 19.2946 115.251 19.0817 115.145 19.0043C115.049 18.9269 114.818 18.8785 114.462 18.8785H113.951V17.7367H119.997C121.114 17.7367 121.951 17.9109 122.5 18.2689C123.049 18.6269 123.318 19.1688 123.318 19.9042C123.318 20.417 123.135 20.8428 122.779 21.1815C122.413 21.5201 121.893 21.7427 121.2 21.8685C121.788 21.9652 122.211 22.1491 122.461 22.42C122.712 22.691 122.837 23.0974 122.837 23.6296V24.4714C122.837 24.8391 122.866 25.081 122.924 25.2165C122.981 25.3423 123.087 25.41 123.232 25.41C123.405 25.41 123.53 25.3132 123.597 25.1197C123.665 24.9262 123.703 24.5682 123.703 24.0456H124.618C124.618 24.0456 124.618 24.1424 124.618 24.2198C124.618 24.2972 124.618 24.3456 124.618 24.3843C124.618 25.1874 124.445 25.7777 124.098 26.1551C123.751 26.5324 123.212 26.726 122.481 26.726C121.711 26.726 121.143 26.5421 120.786 26.1841C120.43 25.8261 120.247 25.2552 120.247 24.4908V23.6586C120.247 23.1748 120.17 22.8555 120.007 22.7103C119.843 22.5652 119.506 22.4878 118.986 22.4878H117.86V24.5682L117.869 24.5488ZM117.869 21.3266H118.842C119.535 21.3266 120.016 21.2395 120.257 21.0653C120.507 20.8912 120.632 20.5815 120.632 20.1364C120.632 19.672 120.507 19.343 120.257 19.1494C120.007 18.9559 119.573 18.8592 118.948 18.8592H117.869V21.3266Z" fill="#1A1414"></path><path d="M126.39 26.5617H125.283V23.1363H126.516C126.631 23.833 126.939 24.3943 127.459 24.8103C127.979 25.2264 128.614 25.4393 129.375 25.4393C129.895 25.4393 130.299 25.3425 130.588 25.1587C130.886 24.9748 131.031 24.7136 131.031 24.3943C131.031 23.8911 130.482 23.5137 129.384 23.2815C129.201 23.2428 129.067 23.2137 128.98 23.1944C128.017 22.9815 127.353 22.8073 126.987 22.6622C126.622 22.5171 126.313 22.3622 126.073 22.1784C125.765 21.9462 125.534 21.6752 125.37 21.3559C125.216 21.0366 125.129 20.6882 125.129 20.3012C125.129 19.4206 125.457 18.7336 126.111 18.2498C126.766 17.766 127.69 17.5241 128.884 17.5241C129.481 17.5241 130.001 17.5821 130.463 17.7079C130.915 17.8241 131.31 18.0079 131.647 18.2595L131.916 17.6402H133.052V20.8237H131.791C131.704 20.1754 131.425 19.6722 130.944 19.3045C130.463 18.9368 129.837 18.753 129.067 18.753C128.605 18.753 128.248 18.8401 127.979 19.0239C127.709 19.2078 127.575 19.4497 127.575 19.7593C127.575 20.2044 128.181 20.5431 129.394 20.785C129.856 20.8818 130.212 20.9592 130.482 21.0172C131.531 21.2591 132.311 21.6172 132.792 22.0719C133.283 22.5267 133.524 23.1267 133.524 23.8621C133.524 24.7329 133.177 25.4199 132.494 25.9328C131.81 26.4456 130.886 26.6972 129.712 26.6972C129.153 26.6972 128.605 26.6295 128.075 26.4843C127.546 26.3392 127.103 26.1553 126.747 25.9134L126.381 26.5521L126.39 26.5617Z" fill="#1A1414"></path><path d="M134.168 26.4456V25.3038H134.726C135.082 25.3038 135.313 25.2651 135.41 25.178C135.506 25.0909 135.564 24.8877 135.564 24.549V19.6238C135.564 19.2851 135.515 19.0723 135.41 18.9948C135.304 18.9078 135.082 18.8691 134.726 18.8691H134.168V17.7273H139.597V18.8691H139.039C138.673 18.8691 138.442 18.9078 138.336 18.9948C138.23 19.0819 138.182 19.2851 138.182 19.6238V24.549C138.182 24.878 138.23 25.0909 138.336 25.178C138.442 25.2651 138.673 25.3038 139.039 25.3038H139.597V26.4456H134.168Z" fill="#1A1414"></path><path d="M140.147 26.4456V25.3038H140.657C141.013 25.3038 141.244 25.2651 141.341 25.178C141.447 25.0909 141.495 24.8877 141.495 24.549V19.6238C141.495 19.2851 141.447 19.0723 141.341 18.9948C141.244 18.9078 141.013 18.8691 140.657 18.8691H140.147V17.7273H145.018C146.857 17.7273 148.214 18.0853 149.1 18.8013C149.986 19.5174 150.428 20.6108 150.428 22.0816C150.428 23.5524 149.986 24.6555 149.09 25.3715C148.195 26.0876 146.838 26.4456 145.009 26.4456H140.137H140.147ZM144.065 25.3038H145.009C145.875 25.3038 146.491 25.0522 146.866 24.5587C147.242 24.0652 147.425 23.2331 147.425 22.0816C147.425 20.9301 147.242 20.0786 146.866 19.5948C146.491 19.111 145.846 18.8691 144.941 18.8691H144.065V25.3038Z" fill="#1A1414"></path><path d="M150.456 26.4456V25.3038H150.793C151.092 25.3038 151.313 25.2554 151.448 25.1683C151.583 25.0812 151.717 24.8393 151.852 24.462L154.22 17.7273H156.954L159.217 24.5007C159.332 24.8296 159.448 25.0522 159.582 25.149C159.708 25.2554 159.9 25.3038 160.16 25.3038H160.632V26.4456H155.558V25.3038H155.944C156.271 25.3038 156.492 25.2844 156.608 25.2361C156.723 25.1877 156.781 25.1103 156.781 24.9941C156.781 24.9554 156.762 24.8974 156.733 24.8103C156.714 24.7716 156.714 24.7329 156.704 24.7135L156.348 23.6395H153.701L153.354 24.6458C153.335 24.7039 153.315 24.7619 153.306 24.8296C153.296 24.8877 153.287 24.9458 153.287 24.9941C153.287 25.1103 153.335 25.1973 153.431 25.2361C153.527 25.2748 153.72 25.3038 154.037 25.3038H154.48V26.4456H150.447H150.456ZM155.972 22.5073L155.048 19.7496L154.105 22.5073H155.972Z" fill="#1A1414"></path><path d="M160.719 26.4456V25.3038H161.229C161.585 25.3038 161.816 25.2651 161.912 25.178C162.018 25.0909 162.066 24.8877 162.066 24.549V19.6238C162.066 19.2851 162.018 19.0723 161.912 18.9948C161.816 18.9078 161.585 18.8691 161.229 18.8691H160.719V17.7273H165.59C167.428 17.7273 168.786 18.0853 169.672 18.8013C170.557 19.5174 171 20.6108 171 22.0816C171 23.5524 170.557 24.6555 169.662 25.3715C168.776 26.0876 167.409 26.4456 165.58 26.4456H160.709H160.719ZM164.637 25.3038H165.58C166.447 25.3038 167.063 25.0522 167.438 24.5587C167.814 24.0652 168.006 23.2331 168.006 22.0816C168.006 20.9301 167.814 20.0786 167.438 19.5948C167.063 19.111 166.418 18.8691 165.513 18.8691H164.637V25.3038Z" fill="#1A1414"></path><path d="M69.3325 28.6518V30.2678H68.5142C67.9943 30.2678 67.667 30.3258 67.5226 30.4516C67.3878 30.5774 67.3108 30.8677 67.3108 31.3321V39.3635H68.3313C69.3228 39.3635 69.9967 39.3151 70.3818 39.228C70.7572 39.1409 71.0653 38.9861 71.3059 38.7732C71.5755 38.5313 71.7873 38.1926 71.9317 37.7669C72.0761 37.3314 72.182 36.7218 72.2494 35.9477H73.9533V40.9794H61.7562V39.3635H62.4782C62.9788 39.3635 63.3061 39.3054 63.4505 39.1893C63.5949 39.0732 63.6623 38.7732 63.6623 38.2991V31.3321C63.6623 30.858 63.5853 30.558 63.4505 30.4419C63.3061 30.3258 62.9788 30.2678 62.4782 30.2678H61.7562V28.6518H69.3325Z" fill="#1A1414"></path><path d="M75.0983 40.9789V39.8371H75.6566C76.0128 39.8371 76.2439 39.7984 76.3402 39.7113C76.4364 39.6242 76.4942 39.421 76.4942 39.0824V34.1571C76.4942 33.8185 76.4461 33.6056 76.3402 33.5282C76.2439 33.4411 76.0128 33.4024 75.6566 33.4024H75.0983V32.2606H80.5278V33.4024H79.9695C79.6036 33.4024 79.3726 33.4411 79.2667 33.5282C79.1704 33.6153 79.1127 33.8185 79.1127 34.1571V39.0824C79.1127 39.4114 79.1608 39.6242 79.2667 39.7113C79.3726 39.7984 79.6036 39.8371 79.9695 39.8371H80.5278V40.9789H75.0983Z" fill="#1A1414"></path><path d="M81.076 40.9789V39.8371H81.5862C81.9424 39.8371 82.1735 39.7984 82.2697 39.7113C82.3756 39.6242 82.4238 39.421 82.4238 39.0824V34.1571C82.4238 33.8185 82.3756 33.6056 82.2697 33.5282C82.1735 33.4411 81.9424 33.4024 81.5862 33.4024H81.076V32.2606H86.4574C87.6511 32.2606 88.5368 32.4251 89.0951 32.7541C89.6535 33.0831 89.9326 33.6056 89.9326 34.312C89.9326 34.7958 89.769 35.2118 89.4417 35.5602C89.1144 35.9085 88.6427 36.1795 88.0169 36.3633C88.8256 36.5278 89.4224 36.7891 89.8075 37.1568C90.1926 37.5245 90.3947 37.9986 90.3947 38.5889C90.3947 39.4404 90.0867 40.0597 89.4513 40.4274C88.8256 40.7951 87.7666 40.9789 86.2841 40.9789H81.0568H81.076ZM85.0037 35.8795H85.6199C86.236 35.8795 86.6788 35.7827 86.958 35.5699C87.2372 35.3667 87.3719 35.0473 87.3719 34.6022C87.3719 34.1571 87.2371 33.8765 86.9772 33.683C86.7077 33.4895 86.2745 33.4024 85.6776 33.4024H85.0134V35.8892L85.0037 35.8795ZM85.0037 39.8371H85.7257C86.4092 39.8371 86.9098 39.721 87.2179 39.4984C87.5259 39.2759 87.6896 38.9179 87.6896 38.4341C87.6896 37.9212 87.5356 37.5632 87.2179 37.331C86.9098 37.0987 86.3996 36.9923 85.7065 36.9923H85.0037V39.8468V39.8371Z" fill="#1A1414"></path><path d="M95.1227 39.0821C95.1227 39.4111 95.1708 39.624 95.2671 39.7111C95.3633 39.7982 95.604 39.8466 95.9698 39.8466H96.4608V40.9884H91.195V39.8466H91.7052C92.0614 39.8466 92.2924 39.8079 92.3887 39.7208C92.4946 39.6337 92.5427 39.4305 92.5427 39.0918V34.1666C92.5427 33.8279 92.4946 33.615 92.3887 33.5376C92.2924 33.4602 92.0614 33.4118 91.7052 33.4118H91.195V32.27H97.2406C98.3669 32.27 99.1948 32.4442 99.7435 32.8022C100.292 33.1603 100.562 33.7021 100.562 34.4375C100.562 34.9504 100.379 35.3761 100.023 35.7148C99.6569 36.0535 99.137 36.276 98.4439 36.4018C99.0312 36.4986 99.4547 36.6824 99.705 36.9534C99.9553 37.2243 100.08 37.6307 100.08 38.1629V39.0047C100.08 39.3724 100.109 39.6143 100.167 39.7498C100.225 39.8756 100.331 39.9433 100.475 39.9433C100.648 39.9433 100.774 39.8466 100.841 39.653C100.908 39.4595 100.947 39.1015 100.947 38.579H101.861C101.861 38.579 101.861 38.6757 101.861 38.7531C101.861 38.8306 101.861 38.8789 101.861 38.9176C101.861 39.7208 101.688 40.311 101.342 40.6884C100.995 41.0658 100.456 41.2593 99.7243 41.2593C98.9541 41.2593 98.3862 41.0755 98.03 40.7174C97.6738 40.3594 97.4909 39.7885 97.4909 39.0241V38.1919C97.4909 37.7081 97.4138 37.3888 97.2502 37.2436C97.0865 37.0985 96.7496 37.0211 96.2394 37.0211H95.1131V39.1015L95.1227 39.0821ZM95.1227 35.8599H96.095C96.7881 35.8599 97.2598 35.7728 97.5101 35.5987C97.7604 35.4245 97.8856 35.1149 97.8856 34.6698C97.8856 34.2053 97.7604 33.8763 97.5101 33.6828C97.2598 33.4892 96.8266 33.3925 96.2009 33.3925H95.1227V35.8599Z" fill="#1A1414"></path><path d="M102.208 40.9789V39.8371H102.718C103.074 39.8371 103.305 39.7984 103.402 39.7113C103.508 39.6242 103.556 39.421 103.556 39.0824V34.1571C103.556 33.8185 103.508 33.6056 103.402 33.5282C103.305 33.4411 103.074 33.4024 102.718 33.4024H102.208V32.2606H111.305V35.5892H110.102C110.025 35.0861 109.938 34.699 109.832 34.4377C109.726 34.1765 109.592 33.9733 109.418 33.8281C109.245 33.6733 109.033 33.5669 108.764 33.4991C108.494 33.4314 108.013 33.4024 107.32 33.4024H106.126V35.8892H106.357C106.867 35.8892 107.204 35.7924 107.378 35.6183C107.551 35.4344 107.637 35.0667 107.637 34.5152H108.793V38.4921H107.637C107.628 37.8825 107.541 37.4858 107.378 37.3019C107.223 37.1181 106.877 37.031 106.357 37.031H106.126V39.8468H107.358C108.369 39.8468 109.053 39.6823 109.399 39.3533C109.755 39.0243 109.986 38.3663 110.083 37.389H111.286V40.9886H102.189L102.208 40.9789Z" fill="#1A1414"></path><path d="M113.885 31.5642C113.962 31.5642 114.029 31.5738 114.087 31.6029C114.145 31.6319 114.202 31.6609 114.241 31.7093C114.279 31.748 114.318 31.8061 114.337 31.8544C114.356 31.9125 114.366 31.9706 114.366 32.0383C114.366 32.1351 114.347 32.2221 114.299 32.2996C114.26 32.377 114.193 32.4253 114.096 32.464C114.096 32.464 114.183 32.5028 114.212 32.5221C114.241 32.5511 114.27 32.5802 114.289 32.6189C114.308 32.6576 114.328 32.6963 114.328 32.735C114.328 32.7737 114.337 32.8221 114.347 32.8608C114.347 32.8898 114.347 32.9188 114.347 32.9575C114.347 32.9962 114.347 33.0349 114.347 33.064C114.347 33.1027 114.356 33.1414 114.366 33.1704C114.376 33.1994 114.385 33.2381 114.405 33.2575H114.039C114.019 33.2091 114 33.1414 114 33.064C114 32.9866 113.991 32.9188 113.981 32.8511C113.971 32.764 113.942 32.6963 113.904 32.6576C113.865 32.6189 113.798 32.5995 113.702 32.5995H113.336V33.2575H112.961V31.5738H113.865L113.885 31.5642ZM113.76 32.3286C113.846 32.3286 113.904 32.3092 113.952 32.2705C113.991 32.2318 114.019 32.1738 114.019 32.0867C114.019 31.9996 114 31.9512 113.952 31.9125C113.914 31.8738 113.846 31.8544 113.76 31.8544H113.355V32.3286H113.76Z" fill="#1A1414"></path><path d="M27.3593 55C12.2741 55 0 42.6627 0 27.5C0 12.3373 12.2741 0 27.3593 0C42.4445 0 54.7186 12.3373 54.7186 27.5C54.7186 42.6627 42.4445 55 27.3593 55Z" fill="#B99223"></path><path d="M27.3598 1.02527C12.833 1.02527 1.02097 12.8981 1.02097 27.4996C1.02097 42.1011 12.833 53.9739 27.3598 53.9739C41.8867 53.9739 53.6987 42.1011 53.6987 27.4996C53.6987 12.8981 41.8867 1.02527 27.3598 1.02527Z" fill="#1A1414"></path><path d="M27.3584 46.9973C16.6727 46.9973 7.9797 38.2596 7.9797 27.5189C7.9797 16.7783 16.6727 8.04058 27.3584 8.04058C38.0441 8.04058 46.7371 16.7783 46.7371 27.5189C46.7371 38.2596 38.0441 46.9973 27.3584 46.9973Z" fill="#B99223"></path><path d="M27.3599 8.86363C17.1266 8.86363 8.79948 17.2336 8.79948 27.5195C8.79948 37.8054 17.1266 46.1754 27.3599 46.1754C37.5932 46.1754 45.9204 37.8054 45.9204 27.5195C45.9204 17.2336 37.5932 8.86363 27.3599 8.86363Z" fill="#D41C21"></path><path fill-rule="evenodd" clip-rule="evenodd" d="M51.0416 29.1549C51.1187 27.4519 50.8299 25.8359 50.1849 24.3458C50.0501 24.0362 49.8287 23.9781 49.665 23.9781C49.6169 23.9781 49.5784 23.9781 49.5302 23.9878C49.4147 24.0071 49.3088 24.0265 49.2029 24.0458C49.0008 24.0845 48.789 24.1136 48.5868 24.1619C48.2595 24.2394 47.9418 24.3168 47.6145 24.4039C46.7 24.6264 45.7565 24.849 44.842 25.1392C43.244 25.6327 41.9443 26.1069 40.7506 26.61C38.9793 27.3551 37.3427 28.2647 35.8987 29.3097C35.504 29.6 35.0708 29.929 34.5991 30.3161C34.4451 30.4419 34.3199 30.7031 34.3584 30.9257C34.5413 31.8739 34.7531 32.919 35.0997 33.9253C35.0034 33.9253 34.9072 33.964 34.8109 34.0318C34.3199 34.3801 33.8193 34.7284 33.3187 35.0671C33.3187 34.4865 33.338 33.9156 33.3476 33.3351C33.3476 33.0061 33.2128 32.7738 32.9433 32.648C32.7508 32.561 32.5679 32.4642 32.3753 32.3674C32.048 32.2126 31.7207 32.0384 31.3741 31.8933C30.5944 31.5546 29.728 31.303 28.6498 31.0998C28.178 31.0128 27.6871 30.9644 27.2057 30.9644C26.5896 30.9644 25.9543 31.0321 25.3189 31.1773C24.0193 31.4675 22.9122 31.8449 21.9495 32.3481C21.6415 32.5126 21.5067 32.7448 21.5067 33.1028C21.5067 33.6544 21.5163 34.1963 21.5259 34.7381C21.3045 34.593 21.0927 34.4478 20.8713 34.293C20.5729 34.0898 20.2841 33.8866 19.976 33.6931C19.9183 33.6544 19.8412 33.635 19.7642 33.635C19.745 33.635 19.7257 33.635 19.7161 33.635C19.9857 32.8803 20.1782 32.1062 20.3515 31.3611C20.5825 30.3257 20.5151 30.1612 19.6391 29.571C17.7715 28.3227 16.2601 27.4809 14.7487 26.852C13.6127 26.3875 12.3997 25.923 11.0327 25.4489C10.3877 25.2263 9.7235 25.0425 9.07851 24.878L8.67418 24.7716C8.02919 24.5974 7.35531 24.4329 6.61405 24.2684C6.28674 24.2007 5.95943 24.1329 5.63212 24.0749C5.47809 24.0458 5.32406 24.0168 5.17003 23.9878C5.1219 23.9781 5.08339 23.9781 5.03526 23.9781C4.91011 23.9781 4.66944 24.0265 4.54429 24.3264C3.88004 25.865 3.59124 29.4258 3.59124 29.4258L3.94743 29.9484C5.50697 32.2223 6.75845 34.5156 7.76926 36.9637L8.00031 37.5152L8.31799 37.0121C8.31799 37.0121 8.36612 36.9346 8.38538 36.9153C8.43351 36.8476 8.46239 36.7992 8.48165 36.7508C9.3288 35.0284 9.80052 33.1996 9.8679 31.3321C9.8679 31.2353 9.8679 31.1482 9.83902 31.0805C11.2927 31.574 12.7848 32.2707 14.3636 33.1899L14.4695 33.2576C14.4695 33.2576 14.4021 33.3157 14.3829 33.3544C14.2577 33.577 14.1518 33.8092 14.0267 34.0705L13.7282 34.6897C13.7282 34.6897 16.4141 37.6217 17.5693 38.5506C19.5139 40.1181 21.6222 40.989 24.0289 41.4341C24.0578 41.4341 25.0108 41.6857 25.0108 41.6857L25.1264 41.1341C25.3574 39.9923 25.444 38.9183 25.5307 37.7862L25.5788 37.1378C26.1083 37.0314 26.6474 36.9733 27.1961 36.9733C27.5812 36.9733 27.9855 37.0024 28.3898 37.0508C28.6979 37.0895 28.9963 37.1572 29.2948 37.2346L29.314 37.4088C29.3525 37.7765 29.391 38.1539 29.4199 38.5119C29.4969 39.3731 29.5643 40.273 29.7761 41.1825L29.9012 41.705C29.9012 41.705 30.8735 41.5018 30.9313 41.4922C31.9325 41.318 33.1166 41.0374 34.291 40.5439C36.0335 39.8182 37.6123 38.6957 38.9889 37.2249C39.3259 36.8572 39.6435 36.4702 39.942 36.0831C40.0575 35.9283 40.2789 35.6283 40.4041 35.4735C40.4618 35.4058 40.7988 34.7672 40.8084 34.7478C40.8758 34.6123 40.8469 34.5059 40.818 34.4382C40.7121 34.1963 40.587 33.9737 40.4618 33.7318L40.3367 33.4899C40.3367 33.4899 40.3944 33.4512 40.4233 33.4318C41.8866 32.5126 43.398 31.7482 44.919 31.1676C44.9094 31.2256 44.8998 31.2934 44.8998 31.3708C44.9383 33.2577 45.4004 35.1058 46.2764 36.8669C46.3053 36.925 46.4112 37.0798 46.44 37.1088L46.7577 37.583L46.9695 37.0508C47.9322 34.6607 49.1644 32.3481 50.7528 29.9774L51.0705 29.5033C51.0705 29.5033 51.032 29.3291 51.0416 29.1839" fill="#1A1414"></path><path fill-rule="evenodd" clip-rule="evenodd" d="M36.3018 35.7442C36.1093 35.3862 35.8975 35.0282 35.7242 34.6605C35.1659 33.451 34.9059 32.1543 34.6556 30.8577C34.6364 30.761 34.7134 30.6061 34.7904 30.5481C35.2044 30.2094 35.6376 29.8707 36.0804 29.5514C37.5726 28.4774 39.1802 27.5968 40.8649 26.8808C42.1934 26.3195 43.5508 25.8454 44.9274 25.4196C46.15 25.0423 47.4111 24.7713 48.6626 24.452C48.9707 24.3746 49.2787 24.3359 49.5964 24.2875C49.7504 24.2585 49.8467 24.3069 49.9141 24.4617C50.5591 25.9518 50.819 27.5194 50.742 29.1353C50.742 29.2708 50.6939 29.3385 50.5495 29.3579C48.7396 29.6288 46.9683 30.0546 45.2451 30.6932C43.493 31.3319 41.8469 32.164 40.2681 33.151C39.1129 33.8767 37.9961 34.6411 36.8506 35.3959C36.6869 35.5023 36.5232 35.5991 36.3018 35.7442Z" fill="white"></path><path fill-rule="evenodd" clip-rule="evenodd" d="M18.5131 35.4055C18.1762 35.1927 17.8874 34.9991 17.589 34.8153C16.5589 34.1767 15.5577 33.509 14.5084 32.8994C12.92 31.9801 11.2642 31.1867 9.52172 30.6255C8.37613 30.2578 7.20166 29.9578 6.03682 29.6675C5.43033 29.5127 4.79496 29.445 4.16922 29.3482C4.04408 29.3288 3.97669 29.2805 3.97669 29.145C4.11146 27.4807 4.26549 25.9615 4.82385 24.423C4.88161 24.2875 4.97787 24.2488 5.11265 24.2681C5.58436 24.3552 6.0657 24.4326 6.54704 24.5391C7.23054 24.6939 7.91404 24.8584 8.59754 25.0422C9.37731 25.2551 10.1667 25.4487 10.9272 25.7099C12.1691 26.1453 13.4109 26.6098 14.6335 27.113C16.3471 27.8193 17.9355 28.7676 19.4758 29.803C20.2556 30.3255 20.2652 30.3739 20.063 31.2641C19.8031 32.3962 19.5143 33.5187 18.9945 34.5637C18.8501 34.8443 18.6768 35.1153 18.5228 35.3862" fill="white"></path><path fill-rule="evenodd" clip-rule="evenodd" d="M32.9627 38.4629C32.5006 38.221 32.077 37.9984 31.6438 37.7952C30.6138 37.3114 29.5644 36.8856 28.4285 36.7308C26.9845 36.5373 25.5597 36.6728 24.1927 37.205C23.4803 37.4856 22.7872 37.8146 22.0748 38.1145C22.0171 38.1436 21.9593 38.1629 21.8823 38.1919C21.8727 38.1242 21.8534 38.0758 21.8534 38.0371C21.8341 36.3825 21.8245 34.7375 21.7956 33.0925C21.7956 32.8603 21.8534 32.7248 22.0748 32.6184C23.1241 32.0765 24.2216 31.7282 25.3672 31.4766C26.4357 31.2444 27.5043 31.196 28.5825 31.3992C29.4874 31.5637 30.3924 31.7959 31.2395 32.1733C31.769 32.4055 32.2696 32.6668 32.7894 32.9184C32.9627 33.0054 33.0205 33.1312 33.0205 33.3248C32.9916 34.8923 32.9723 36.4599 32.9531 38.0274C32.9531 38.1532 32.9531 38.279 32.9531 38.4725" fill="white"></path><path fill-rule="evenodd" clip-rule="evenodd" d="M21.5447 36.8759C21.5447 37.3597 21.5351 37.8435 21.5447 38.3177C21.5447 38.4435 21.6121 38.608 21.7084 38.6854C22.3438 39.266 23.008 39.8369 23.6626 40.4078C23.8359 40.5626 24.4039 41.1045 24.4231 41.1722C24.3558 41.1819 20.4088 40.5723 17.7518 38.2887C16.6736 37.4178 14.2188 34.8439 14.1995 34.7762C14.2765 34.7665 14.7867 34.8826 14.8541 34.8923C15.3258 34.989 15.7879 35.1052 16.2596 35.1922C16.8084 35.2987 17.3571 35.3761 17.9058 35.4825C18.0213 35.5019 18.1272 35.5696 18.2331 35.6277C18.493 35.7922 18.7241 35.7631 18.8781 35.4922C19.0514 35.1826 19.1862 34.8439 19.3402 34.5246C19.4268 34.3407 19.5039 34.1569 19.6098 33.9827C19.6386 33.9343 19.7734 33.9053 19.8119 33.9343C20.3318 34.2827 20.842 34.6407 21.3618 34.989C21.5159 35.0858 21.564 35.2116 21.564 35.3955C21.5544 35.8889 21.564 36.3728 21.564 36.8662H21.5447V36.8759Z" fill="white"></path><path fill-rule="evenodd" clip-rule="evenodd" d="M30.3246 41.308C30.392 41.2209 32.2885 39.605 33.0393 38.9954C33.2223 38.8503 33.2896 38.6954 33.2896 38.4535C33.2704 37.5343 33.2896 36.6247 33.2704 35.7055C33.2704 35.5216 33.3281 35.4055 33.4822 35.2991C33.9924 34.9604 34.4834 34.612 34.984 34.2637C35.1284 34.1573 35.2054 34.225 35.2631 34.3508C35.4075 34.6895 35.5519 35.0378 35.706 35.3861C35.783 35.5506 35.86 35.7055 35.9563 35.8603C36.1199 36.1022 36.3124 36.1119 36.5627 35.9667C36.7168 35.8796 36.8804 35.7925 37.0537 35.7538C38.0068 35.5506 38.9694 35.3668 39.9321 35.1829C39.9995 35.1733 40.1728 35.0862 40.2498 35.0959C40.2209 35.1539 40.1054 35.3474 40.0573 35.4055C39.6241 35.9377 39.2197 36.4892 38.7576 36.9827C37.4484 38.3858 35.9466 39.4986 34.1657 40.234C32.9816 40.7275 32.0767 40.921 30.8926 41.1822C30.8059 41.1919 30.3342 41.3177 30.315 41.2984" fill="white"></path><path fill-rule="evenodd" clip-rule="evenodd" d="M50.5595 29.7158C49.0385 31.9801 47.7004 34.3798 46.6799 36.915C46.6126 36.8182 45.1685 34.0992 45.1974 31.3511C45.1974 31.1286 45.2744 31.0221 45.4766 30.9641C46.5644 30.6448 48.8267 29.8223 50.5595 29.7158Z" fill="white"></path><path fill-rule="evenodd" clip-rule="evenodd" d="M4.19668 29.7642C4.4566 29.7836 4.63951 29.7836 4.82242 29.803C6.33382 29.9868 7.77784 30.4222 9.23148 30.8673C9.47215 30.9351 9.55879 31.0512 9.54917 31.3125C9.48178 33.18 9.01969 34.9314 8.20142 36.5957C8.17254 36.6538 8.13403 36.7118 8.05702 36.8279C7.02695 34.3121 5.75621 31.9995 4.2063 29.7546" fill="white"></path><path fill-rule="evenodd" clip-rule="evenodd" d="M25.2601 37.215C25.1543 38.5019 25.0869 39.7501 24.8173 41.0564C23.9028 40.1565 22.8727 39.4889 22.0833 38.5019C23.1038 37.9504 24.1049 37.5052 25.2505 37.215" fill="white"></path><path fill-rule="evenodd" clip-rule="evenodd" d="M30.0736 41.0955C29.7752 39.8376 29.7559 38.6184 29.6212 37.3605C30.7764 37.6121 31.7583 38.1249 32.7402 38.7345C31.9412 39.615 30.9593 40.244 30.0736 41.0955Z" fill="white"></path><path fill-rule="evenodd" clip-rule="evenodd" d="M14.1713 34.4475C14.3542 34.0798 14.489 33.7702 14.643 33.4799C14.6623 33.4412 14.8067 33.4315 14.8644 33.4605C15.0762 33.5573 15.2976 33.6637 15.4902 33.7895C16.087 34.1766 17.5792 35.0765 17.5792 35.1539C16.5587 34.941 15.2399 34.6701 14.1713 34.4475Z" fill="white"></path><path fill-rule="evenodd" clip-rule="evenodd" d="M37.5052 35.4155C38.2946 34.7284 39.1321 34.1285 40.0755 33.6544C40.2392 33.964 40.3932 34.264 40.528 34.564C40.5473 34.593 40.451 34.7285 40.3836 34.7478C39.6905 34.922 38.9877 35.0768 38.285 35.2413C38.025 35.2993 37.7555 35.3574 37.4956 35.4155" fill="white"></path><path d="M48.3753 27.4614C48.3753 27.4614 48.3753 27.5001 48.3753 27.5098C48.4427 27.7807 48.5486 27.9743 48.7123 28.0807C48.8759 28.1871 49.0781 28.2162 49.3284 28.1581C49.5787 28.1001 49.752 27.9839 49.8675 27.8001C49.9734 27.6259 50.0023 27.413 49.9349 27.1518C49.906 27.026 49.8675 26.9292 49.8097 26.8421C49.7616 26.7647 49.6942 26.697 49.6076 26.6486C49.5402 26.6099 49.3573 26.5712 49.0492 26.5325C49.0011 26.5325 48.9722 26.5325 48.9433 26.5228C48.7411 26.4938 48.6064 26.4551 48.539 26.397C48.4716 26.339 48.4235 26.2519 48.385 26.1261C48.3561 25.9906 48.3657 25.8745 48.4331 25.7778C48.5005 25.681 48.5967 25.6133 48.7315 25.5842C48.8663 25.5552 48.9818 25.5649 49.0685 25.6326C49.1647 25.7003 49.2225 25.8068 49.261 25.9519V25.981L49.5402 25.9132C49.5402 25.9132 49.5402 25.8939 49.5402 25.8842C49.5402 25.8648 49.5402 25.8552 49.5402 25.8455C49.492 25.6326 49.3861 25.4778 49.2321 25.381C49.0781 25.2843 48.8952 25.2649 48.6738 25.3133C48.4427 25.3713 48.2791 25.4778 48.1828 25.6423C48.0865 25.8068 48.0673 26.0003 48.1154 26.2422C48.1443 26.368 48.1828 26.4648 48.2406 26.5519C48.2983 26.6293 48.3753 26.697 48.462 26.7454C48.5197 26.7744 48.6641 26.8034 48.8952 26.8325C48.9722 26.8421 49.0492 26.8518 49.0973 26.8615C49.2899 26.8905 49.4247 26.9292 49.492 26.9873C49.5594 27.0453 49.6076 27.1324 49.6364 27.2582C49.6749 27.413 49.6557 27.5485 49.5979 27.655C49.5305 27.7614 49.4246 27.8388 49.2802 27.8775C49.1166 27.9162 48.9818 27.8969 48.8759 27.8291C48.77 27.7614 48.693 27.6259 48.6545 27.4421L48.6256 27.3453L48.3368 27.413C48.3368 27.413 48.3368 27.4324 48.3465 27.4614M48.2598 28.3613L47.5571 25.6907L47.249 25.7681L47.9518 28.4387L48.2598 28.3613ZM47.1431 28.671L46.45 26.2906L47.0853 26.1067L47.0083 25.8358L45.4007 26.3099L45.4777 26.5809L46.1515 26.3874L46.8447 28.7677L47.1431 28.6806V28.671ZM44.9097 29.3773L44.8519 28.5548L45.6798 28.2742L46.1323 28.9613L46.4307 28.8645L44.8423 26.4841L44.4669 26.6099L44.6305 29.4741L44.9289 29.3773H44.9097ZM44.7172 26.7744L45.5162 28.0323L44.8231 28.2646L44.7172 26.7744ZM44.2454 29.6096L43.379 27.2873L43.9951 27.055L43.8989 26.7938L42.3297 27.384L42.426 27.655L43.0806 27.4034L43.947 29.7257L44.2358 29.6192L44.2454 29.6096ZM42.0024 30.5095L41.5307 29.3773L41.8965 29.2225C42.089 29.1354 42.2334 29.1161 42.3393 29.1451C42.4452 29.1741 42.5415 29.2806 42.6281 29.4451C42.6666 29.5031 42.7052 29.5902 42.7533 29.6966C42.8592 29.9095 42.9362 30.045 42.994 30.0837L43.3405 29.9386C43.2443 29.9095 43.1287 29.7547 42.994 29.4838C42.9458 29.3773 42.8977 29.2902 42.8688 29.2322C42.7822 29.0677 42.6859 28.9612 42.5896 28.9129C42.4837 28.8645 42.3586 28.8645 42.2142 28.9129C42.3586 28.8064 42.4452 28.6806 42.4741 28.5452C42.5126 28.4097 42.4934 28.2549 42.4164 28.0904C42.3201 27.8678 42.1853 27.7324 42.012 27.6743C41.8387 27.6162 41.627 27.6453 41.3574 27.7614L40.645 28.0614L41.7136 30.6062L41.9928 30.4901L42.0024 30.5095ZM41.0301 28.2065L41.4344 28.042C41.6173 27.9646 41.7617 27.9452 41.8773 27.9743C41.9928 28.0033 42.0794 28.1001 42.1468 28.2549C42.2142 28.4194 42.2142 28.5548 42.1564 28.671C42.0987 28.7871 41.9639 28.8838 41.7714 28.9709L41.4248 29.1161L41.0397 28.1968L41.0301 28.2065ZM41.444 30.761L41.3093 30.4998L40.3466 30.9836L39.8941 30.074L40.7798 29.6289L40.6547 29.3773L39.769 29.8224L39.3743 29.029L40.3273 28.5548L40.2022 28.2936L38.9796 28.9032L40.2022 31.3803L41.4344 30.761H41.444ZM39.2395 31.9415C39.4609 31.8061 39.5861 31.6513 39.6342 31.4577C39.6823 31.2642 39.6342 31.061 39.5091 30.8481C39.4032 30.6836 39.2973 30.5675 39.1721 30.5191C39.047 30.4611 38.9122 30.4611 38.7582 30.5191C38.8544 30.4224 38.9026 30.3063 38.9026 30.1901C38.9026 30.074 38.8641 29.9386 38.7774 29.8031C38.6523 29.5999 38.5079 29.4741 38.3539 29.4451C38.1998 29.416 38.0073 29.4644 37.7955 29.5999L37.1794 29.9773L38.6138 32.3383L39.2491 31.9512L39.2395 31.9415ZM38.1613 31.0417L38.4501 30.8675C38.633 30.761 38.7774 30.7127 38.9026 30.7417C39.0181 30.761 39.1336 30.8675 39.2395 31.0417C39.3358 31.1965 39.3647 31.3319 39.3358 31.4384C39.3069 31.5545 39.2106 31.6513 39.047 31.748L38.71 31.9512L38.1613 31.0417ZM37.5452 30.0256L37.8051 29.8708C37.9784 29.7644 38.1132 29.716 38.2191 29.7354C38.325 29.7547 38.4212 29.8321 38.5079 29.9676C38.6041 30.1127 38.633 30.2385 38.6041 30.345C38.5753 30.4514 38.479 30.5482 38.3153 30.6546L38.0458 30.8191L37.5645 30.0256H37.5452ZM38.2865 32.5608L36.698 30.3063L36.4478 30.4901L38.0362 32.7447L38.2961 32.5608H38.2865ZM37.834 32.8511L37.6318 32.6286L36.8039 33.3543L35.177 31.5061L34.946 31.7093L36.7654 33.7897L37.8244 32.8511H37.834Z" fill="#1A1414"></path><path d="M29.313 34.9318C29.313 34.9318 29.3033 34.9608 29.2937 34.9705C29.1974 35.2318 29.1878 35.4543 29.2552 35.6285C29.3322 35.8123 29.4862 35.9478 29.7269 36.0349C29.9676 36.122 30.1794 36.122 30.3719 36.0349C30.5548 35.9478 30.6992 35.7833 30.7858 35.5317C30.834 35.4156 30.8532 35.2995 30.8532 35.2124C30.8532 35.1253 30.834 35.0286 30.7955 34.9415C30.757 34.8737 30.6318 34.7383 30.3911 34.5351C30.3526 34.506 30.3238 34.477 30.3045 34.4673C30.1505 34.3319 30.0638 34.2254 30.035 34.1383C30.0061 34.0513 30.0157 33.9448 30.0638 33.819C30.112 33.6932 30.189 33.6062 30.2949 33.5578C30.4008 33.5094 30.5163 33.5094 30.6511 33.5578C30.7858 33.6062 30.8629 33.6836 30.911 33.79C30.9495 33.8964 30.9495 34.0222 30.8917 34.1674V34.1964L31.142 34.2932C31.142 34.2932 31.142 34.2738 31.1613 34.2641C31.1613 34.2545 31.1709 34.2351 31.1709 34.2351C31.2479 34.0222 31.2479 33.8384 31.1709 33.6836C31.0939 33.5191 30.9495 33.403 30.7473 33.3255C30.5259 33.2385 30.3334 33.2385 30.1601 33.3255C29.9868 33.403 29.8617 33.5578 29.775 33.79C29.7365 33.9061 29.7173 34.0126 29.7173 34.119C29.7173 34.2158 29.7462 34.3125 29.7943 34.4093C29.8232 34.4673 29.9291 34.5738 30.112 34.7189C30.1794 34.777 30.2275 34.8157 30.266 34.8544C30.42 34.9899 30.5067 35.0963 30.5355 35.1737C30.5644 35.2608 30.5548 35.3576 30.5067 35.4833C30.4489 35.6382 30.3623 35.7349 30.2564 35.793C30.1409 35.8511 30.0157 35.8511 29.8713 35.793C29.7173 35.7349 29.6114 35.6478 29.5632 35.5221C29.5151 35.4059 29.5247 35.2511 29.5921 35.0769L29.621 34.9802L29.3418 34.8834C29.3418 34.8834 29.3322 34.9028 29.3226 34.9221M27.4357 35.5995L27.4935 33.161L28.3792 35.6382L28.7738 35.6575L28.8701 32.8901H28.5717L28.5139 35.2511L27.6475 32.8417H27.2336L27.1373 35.5898H27.4357V35.5995ZM25.3082 35.5898C25.4815 35.793 25.7222 35.8607 26.0302 35.8123C26.3383 35.7543 26.5404 35.6091 26.6367 35.3672C26.733 35.1253 26.733 34.748 26.6463 34.2351C26.5597 33.7223 26.4249 33.3739 26.2516 33.1707C26.0784 32.9772 25.8377 32.8998 25.5296 32.9578C25.2216 33.0159 25.0194 33.161 24.9231 33.4126C24.8269 33.6545 24.8172 34.0319 24.9135 34.5448C25.0001 35.0479 25.1349 35.3963 25.3082 35.5995M25.1927 33.5578C25.2408 33.3739 25.3756 33.2675 25.5778 33.2288C25.7799 33.1901 25.9436 33.2481 26.0495 33.403C26.1554 33.5481 26.2516 33.8481 26.3286 34.2932C26.4057 34.7383 26.4153 35.0479 26.3672 35.2318C26.3094 35.4059 26.1842 35.5124 25.9821 35.5511C25.7799 35.5898 25.6163 35.5317 25.5104 35.3769C25.3948 35.2221 25.3082 34.9318 25.2312 34.4867C25.1542 34.0513 25.1446 33.7416 25.1927 33.5578ZM24.1722 36.2381L23.7487 34.9995L24.5862 34.7092L24.4899 34.4383L23.6524 34.7286L23.3636 33.8868L24.2685 33.5674L24.1722 33.3062L22.9689 33.7319L23.8738 36.3445L24.1722 36.2381Z" fill="#1A1414"></path><path d="M15.6153 32.2224L16.2603 31.7193L16.9438 32.2611L16.6165 33.0159L16.8572 33.2094L17.9643 30.5581L17.6562 30.3162L15.365 32.0289L15.6153 32.2224ZM17.6658 30.6259L17.0594 31.9902L16.4818 31.5354L17.6658 30.6259ZM15.1533 31.9322L16.6262 29.5905L16.3566 29.4163L14.8837 31.7483L15.1533 31.9225V31.9322ZM14.1328 31.3032L15.3458 29.1357L15.9234 29.4647L16.0582 29.2131L14.5949 28.3906L14.4601 28.6422L15.0762 28.9906L13.8633 31.158L14.1328 31.3129V31.3032ZM11.8416 30.1227L12.8525 27.8971L12.6984 30.5194L13.0546 30.6936L14.2291 28.1874L13.9595 28.0616L12.9776 30.2194L13.122 27.6649L12.7466 27.4907L11.5721 29.9969L11.8416 30.1227ZM11.2544 29.8614L11.3603 29.5905L10.3687 29.1841L10.7442 28.2358L11.6684 28.6132L11.7743 28.3519L10.8501 27.9745L11.187 27.1521L12.169 27.5488L12.2748 27.2779L11.0137 26.765L9.98368 29.3292L11.2544 29.8517V29.8614ZM9.57935 29.2034L10.5324 26.6102L10.234 26.5038L9.28092 29.097L9.57935 29.2034ZM8.94398 27.9358C8.86697 28.1584 8.7707 28.3229 8.65518 28.4197C8.53966 28.5164 8.40488 28.5358 8.25086 28.4874C8.06795 28.4197 7.96205 28.2939 7.93317 28.1003C7.90429 27.9068 7.96205 27.6165 8.0872 27.2198C8.22197 26.8134 8.35675 26.5425 8.49152 26.3973C8.6263 26.2522 8.78033 26.2038 8.96324 26.2715C9.10764 26.3199 9.20391 26.407 9.25204 26.5425C9.30017 26.6683 9.30017 26.8231 9.23279 27.0069L9.51196 27.1037V27.0747C9.60823 26.8134 9.60823 26.6005 9.52159 26.4167C9.43495 26.2328 9.28092 26.107 9.04025 26.0199C8.75145 25.9232 8.51078 25.9619 8.30862 26.1361C8.10645 26.3102 7.92354 26.6392 7.76952 27.123C7.61549 27.5875 7.56735 27.9552 7.62511 28.2261C7.68287 28.4971 7.84653 28.6712 8.10645 28.7583C8.35675 28.8454 8.57817 28.8164 8.7707 28.6906C8.96324 28.5648 9.11727 28.3326 9.23279 27.9939L8.94398 27.8971L8.92473 27.9358H8.94398ZM5.74789 27.094C5.74789 27.094 5.73826 27.1327 5.72864 27.1424C5.65162 27.4133 5.66125 27.6359 5.74789 27.8004C5.83453 27.9745 5.99819 28.1003 6.24848 28.1681C6.49878 28.2358 6.71057 28.2261 6.89348 28.1294C7.06676 28.0229 7.20154 27.8488 7.26892 27.5972C7.2978 27.4811 7.31706 27.3649 7.30743 27.2682C7.2978 27.1714 7.26892 27.0843 7.22079 27.0069C7.18228 26.9392 7.03788 26.8134 6.78758 26.6392C6.74908 26.6102 6.7202 26.5908 6.70094 26.5812C6.53729 26.465 6.44102 26.3586 6.40251 26.2715C6.36401 26.1844 6.36401 26.078 6.40251 25.9522C6.44102 25.8167 6.50841 25.7297 6.6143 25.6716C6.7202 25.6135 6.83572 25.6039 6.97049 25.6522C7.10527 25.6909 7.19191 25.7587 7.24004 25.8651C7.28818 25.9716 7.2978 26.0974 7.24967 26.2425V26.2715L7.50959 26.3489C7.50959 26.3489 7.50959 26.3296 7.51922 26.3102C7.51922 26.3006 7.51922 26.2812 7.52885 26.2812C7.58661 26.0683 7.57698 25.8845 7.49034 25.7297C7.4037 25.5748 7.24967 25.4684 7.03788 25.4007C6.80684 25.3329 6.6143 25.3523 6.45065 25.449C6.28699 25.5458 6.17147 25.7006 6.10408 25.9425C6.06558 26.0586 6.05595 26.1748 6.06558 26.2715C6.06558 26.3683 6.10408 26.465 6.16184 26.5521C6.19072 26.6005 6.30624 26.6973 6.49878 26.8424C6.56617 26.8908 6.62393 26.9295 6.66244 26.9585C6.82609 27.0747 6.92236 27.1811 6.95124 27.2585C6.98012 27.3359 6.98012 27.4424 6.95124 27.5681C6.90311 27.723 6.82609 27.8391 6.7202 27.8971C6.6143 27.9649 6.48915 27.9746 6.33513 27.9358C6.17147 27.8875 6.06558 27.8101 6.00781 27.6939C5.95005 27.5778 5.95005 27.4327 6.00781 27.2488L6.0367 27.1521L5.75752 27.0747C5.75752 27.0747 5.75752 27.094 5.74789 27.1134" fill="#1A1414"></path><path d="M39.0471 45.4882L39.0663 45.4688L40.443 47.0848L39.9424 47.4234L39.0471 45.4882ZM38.1229 45.1689L39.9135 49.4458L40.6163 48.9716L40.2216 48.0814L40.8954 47.6266L41.5212 48.3524L42.3009 47.8298L39.1434 44.4722L38.1133 45.1592L38.1229 45.1689ZM35.6585 46.4945L37.6993 50.5585L38.5658 50.1231L36.5249 46.0591L35.6585 46.4945ZM33.9449 49.7941L34.0412 49.7554C34.4455 49.6103 34.6188 49.6974 34.7535 50.0941L34.8402 50.3457C34.975 50.7424 34.8979 50.9166 34.484 51.0617L34.3877 51.1004L33.9353 49.7941H33.9449ZM33.348 48.0524L33.425 48.0234C33.7812 47.8976 33.9353 47.9653 34.0508 48.3137L34.1278 48.5362C34.2433 48.8846 34.1567 49.0297 33.8101 49.1555L33.7331 49.1845L33.348 48.0524ZM32.2698 47.7137L33.7524 52.0197L34.9268 51.6133C35.7836 51.3133 36.0532 50.9166 35.8029 50.1908L35.6681 49.8038C35.5044 49.3297 35.1482 49.1168 34.6284 49.2039C35.0423 48.9523 35.1675 48.5846 34.9942 48.0911L34.9268 47.9072C34.6765 47.1815 34.2241 47.0364 33.3673 47.3363L32.2602 47.7234L32.2698 47.7137ZM27.88 48.3233L28.4769 52.8422L29.2278 52.7454L28.7368 49.0394H28.8042L29.7765 52.668L30.6333 52.5519L30.6814 48.7781H30.7392L31.2301 52.4745L32.0195 52.368L31.4227 47.8589L30.1327 48.033L30.0846 51.3423H30.0364L29.1893 48.1588L27.88 48.333V48.3233ZM26.8885 49.7457C26.9558 48.5749 26.6959 48.1201 25.6755 48.0621C24.6454 48.004 24.347 48.4201 24.2796 49.6006L24.193 51.0617C24.1256 52.2325 24.3759 52.697 25.4059 52.7551C26.436 52.8131 26.7344 52.3874 26.8018 51.2165L26.8885 49.7457ZM25.9354 49.4748L25.8295 51.3617C25.8006 51.8358 25.7525 52.0584 25.4444 52.039C25.1364 52.0197 25.1171 51.7971 25.1364 51.323L25.2423 49.4458C25.2712 48.962 25.3193 48.7491 25.6274 48.7588C25.9354 48.7781 25.9547 49.0007 25.9354 49.4748ZM21.6996 47.4041L20.7081 51.8455L22.7297 52.3003L22.8837 51.6133L21.7959 51.3714L22.6334 47.617L21.6996 47.4041ZM20.1593 48.4878C20.5925 47.3944 20.4963 46.8912 19.5432 46.5042C18.5902 46.1171 18.1666 46.4171 17.7334 47.5105L17.1943 48.8749C16.7611 49.9683 16.8477 50.4811 17.8104 50.8682C18.7635 51.2552 19.187 50.9456 19.6202 49.8522L20.169 48.4878H20.1593ZM19.3411 47.9363L18.6383 49.6877C18.465 50.1328 18.3399 50.3263 18.0607 50.2102C17.7719 50.0941 17.82 49.8715 18.0029 49.4264L18.7057 47.675C18.879 47.2299 19.0041 47.0364 19.2833 47.1525C19.5721 47.2686 19.524 47.4912 19.3411 47.9363ZM16.8862 46.6687C17.3965 45.8365 17.3098 45.3721 16.5397 44.8979C15.654 44.3561 15.1919 44.5786 14.5758 45.5849L13.8057 46.8332C13.1896 47.8298 13.1992 48.3524 14.0752 48.8942C14.8646 49.3877 15.3363 49.2523 15.8369 48.4201L15.9717 48.2072L15.1534 47.704L15.0186 47.9266C14.7972 48.2943 14.6432 48.4298 14.4218 48.2943C14.1811 48.1492 14.2678 47.9266 14.518 47.5202L15.5 45.9139C15.7503 45.5075 15.8947 45.3334 16.1353 45.4882C16.376 45.643 16.2894 45.8559 16.0391 46.2526L15.9909 46.3397L16.79 46.8332L16.8862 46.6784V46.6687Z" fill="white"></path><path d="M50.3486 17.6016L46.0358 19.2465L46.8156 21.3076L47.4798 21.056L47.0755 19.9819L48.3366 19.4981L48.6832 20.4173L49.3474 20.1658L49.0008 19.2465L50.0598 18.8401L50.4256 19.8271L51.0899 19.5755L50.3486 17.6016ZM48.3366 15.1535L48.3751 15.2309C48.5773 15.5986 48.5388 15.7727 48.1826 15.9663L47.9708 16.092C47.6242 16.2856 47.4413 16.2372 47.2391 15.8695L47.191 15.7824L48.327 15.1438L48.3366 15.1535ZM48.4425 13.9439L44.4185 16.2082L44.8998 17.079L46.6038 16.1211L46.6615 16.2178C46.9022 16.6533 46.8059 16.75 46.4594 16.9436L45.2271 17.6403L45.7374 18.5692L46.7289 18.0176C47.4124 17.6306 47.5761 17.2822 47.2488 16.5565C47.6916 17.1564 48.0959 17.2532 48.6639 16.9339L48.8276 16.8371C49.5014 16.4501 49.5592 15.9469 49.0779 15.076L48.4521 13.9536L48.4425 13.9439ZM44.5148 12.9666L44.5822 13.0537C44.8806 13.4214 44.8613 13.6246 44.534 13.8955L44.3222 14.0697C43.9853 14.3406 43.7928 14.3116 43.4943 13.9439L43.4269 13.8568L44.5148 12.9763V12.9666ZM45.9684 11.7861L46.0262 11.8635C46.2861 12.1828 46.2765 12.3667 45.9877 12.5989L45.8048 12.7441C45.516 12.9763 45.333 12.9376 45.0827 12.6183L45.025 12.5505L45.9684 11.7861ZM45.8818 10.5862L42.291 13.4988L43.1478 14.5632C43.7639 15.3373 44.2645 15.4921 44.871 14.9986L45.1886 14.7374C45.5833 14.4181 45.6507 13.9729 45.3715 13.4795C45.7759 13.8181 46.1802 13.8278 46.5942 13.4891L46.7386 13.3633C47.345 12.8698 47.3065 12.357 46.6904 11.5829L45.8914 10.5766L45.8818 10.5862ZM44.0431 8.80581L40.9047 12.2022L41.6749 12.9279L44.8228 9.53153L44.0431 8.80581ZM41.5979 6.83185L38.7868 10.5088L40.587 11.9022L41.0202 11.3313L40.0576 10.5862L42.4354 7.47048L41.5979 6.82217V6.83185ZM34.8976 4.30634L34.9939 4.33537C35.3789 4.47083 35.4848 4.63533 35.3597 4.98368L34.6184 7.08343C34.4933 7.43178 34.32 7.49951 33.9253 7.35437L33.829 7.31566L34.888 4.29666L34.8976 4.30634ZM34.1275 3.27097L32.5968 7.64465L33.5595 7.98332C34.1756 8.20588 34.6184 8.29297 35.0035 8.10912C35.3789 7.92527 35.5907 7.53822 35.8025 6.93829L36.1876 5.84487C36.3994 5.23526 36.4764 4.8095 36.2935 4.43213C36.101 4.01605 35.7063 3.8322 35.0901 3.60964L34.1275 3.27097ZM31.1817 3.49353H31.2106L31.1335 5.66102L30.4885 5.55458L31.1817 3.49353ZM30.6811 2.60331L28.9868 7.02537L29.9013 7.18019L30.2382 6.25127L31.1143 6.39641L31.0854 7.37372L32.0962 7.53822L32.0192 2.82587L30.6811 2.60331ZM26.7341 3.11615H26.8304C27.2443 3.11615 27.3983 3.22259 27.3983 3.59997L27.4272 5.82551C27.4272 6.20289 27.2828 6.319 26.8689 6.319H26.7726L26.7341 3.11615ZM25.6559 2.41946L25.7137 7.0544H26.7341C27.3887 7.03505 27.8316 6.96731 28.13 6.65767C28.4188 6.35771 28.4862 5.92228 28.4765 5.28364L28.4573 4.12249C28.4573 3.48385 28.3707 3.04842 28.0819 2.76781C27.7642 2.44849 27.3213 2.40011 26.6763 2.40978H25.6559V2.41946ZM23.2107 2.7291L23.8557 7.32534L24.905 7.18019L24.2696 2.58396L23.2203 2.7291H23.2107ZM22.1614 3.96767C21.9688 3.27097 21.4779 3.00971 20.7174 3.22259C19.8798 3.45482 19.5044 4.01605 19.6584 4.59662L19.7643 4.98368C19.8798 5.42879 20.1301 5.66102 20.5922 5.82551L21.0928 5.99969C21.4586 6.1158 21.7089 6.20289 21.7956 6.55123L21.8437 6.72541C21.9207 6.99634 21.8822 7.12214 21.6608 7.18019C21.4394 7.23825 21.3335 7.15116 21.2661 6.88023L21.1602 6.50285L20.1398 6.78347L20.2264 7.11246C20.4382 7.89624 20.8618 8.14782 21.7859 7.89624C22.6716 7.65433 23.047 7.13181 22.8641 6.4448L22.7871 6.17386C22.7101 5.90292 22.6138 5.7094 22.4598 5.57393C22.2673 5.40943 22.0362 5.35137 21.8244 5.27396L21.3335 5.09979C20.9869 4.98368 20.7944 4.87724 20.7174 4.61598L20.6403 4.32569C20.573 4.09346 20.6115 3.98702 20.804 3.93864C20.9965 3.89026 21.0832 3.96767 21.1409 4.19022L21.2468 4.58695L22.2384 4.31601L22.1518 3.97734L22.1614 3.96767ZM16.6837 5.55458L16.7704 5.51587C17.1458 5.3417 17.3191 5.39976 17.4924 5.75778L17.5983 5.98033C17.7716 6.33836 17.6946 6.52221 17.3191 6.69638L17.2325 6.73508L16.6837 5.55458ZM15.4996 5.35138L17.4539 9.56056L18.3492 9.1348L17.5213 7.36404L17.6272 7.31566C18.07 7.10278 18.1663 7.20922 18.3395 7.57692L18.9364 8.86387L19.8895 8.41876L19.4081 7.38339C19.0808 6.66735 18.7342 6.47382 17.993 6.75444C18.6187 6.35771 18.7439 5.96098 18.4743 5.36105L18.3877 5.18688C18.0604 4.48051 17.5501 4.39342 16.6549 4.8095L15.49 5.35138H15.4996ZM12.448 7.33501L15.0761 11.1475L16.8763 9.88955L16.472 9.2993L15.5382 9.94761L14.7776 8.83484L15.5767 8.27361L15.1723 7.68336L14.3733 8.24458L13.7283 7.30598L14.5851 6.70605L14.1808 6.1158L12.4576 7.31566L12.448 7.33501ZM9.39627 9.99599L13.2181 12.7537L14.0364 11.9796L11.5142 8.00268L10.8595 8.61228L12.8715 11.4378L12.8234 11.4861L10.1568 9.27995L9.39627 9.99599ZM8.01001 11.6119L11.5334 14.6019L12.2169 13.7891L8.69351 10.7894L8.01001 11.6023V11.6119ZM5.49742 15.2018L9.34813 17.7467L9.81984 17.0306L6.51786 14.9309L6.55637 14.8728L10.2242 16.4017L10.9943 15.2309L7.1436 12.686L6.67189 13.4117L9.97387 15.5018L9.93537 15.5599L6.25793 14.0407L5.49742 15.2018ZM3.66833 19.353L6.48898 20.5141C7.58643 20.9689 8.1159 20.8625 8.53948 19.8271C8.95343 18.8014 8.655 18.337 7.55755 17.8822L4.7369 16.721L4.33258 17.708L7.35539 18.9466C7.80785 19.1304 8.00038 19.2465 7.88486 19.5368C7.76934 19.8368 7.54792 19.7884 7.09546 19.5949L4.07266 18.3563L3.67796 19.3336L3.66833 19.353Z" fill="white"></path><path d="M27.1378 29.7739L26.9164 29.6481C23.4315 27.7516 21.0151 24.2294 19.9273 19.459C19.1187 15.8981 19.3305 12.9275 19.3401 12.8114L19.3786 12.3373H34.1076L34.1364 12.8211C34.3771 16.6045 34.0594 21.9942 31.1233 26.1937C29.3423 28.7386 27.4458 29.6385 27.3688 29.6772L27.1378 29.7836V29.7739Z" fill="white"></path><path d="M20.3318 13.3625C20.2837 15.559 20.4858 24.7709 27.1572 28.622C27.677 28.3221 29.0344 27.4028 30.3244 25.545C32.9333 21.7712 33.3183 16.9234 33.1451 13.3625H20.3318Z" fill="#1A1414"></path><path d="M28.5146 25.2743C26.5892 25.4194 25.5881 26.0968 25.5881 26.0968V26.2516C26.0598 26.2516 26.5122 26.2129 26.9358 26.1452V25.7968C26.9358 25.7194 26.9936 25.6614 27.0706 25.6614H27.4845C27.5616 25.6614 27.6193 25.7388 27.6193 25.8065V26.0194C28.736 25.7775 28.7264 25.7871 29.5543 25.4194V25.2646C29.3521 25.255 29.15 25.2453 28.9382 25.2453C28.7938 25.2453 28.6494 25.2453 28.505 25.255" fill="#D41C21"></path><path d="M25.5881 25.6522V25.9618C25.5881 25.9618 25.6747 25.9135 25.8191 25.8457C26.6374 25.4297 27.7348 25.1587 28.9382 25.149C28.9574 25.149 28.9863 25.149 29.0152 25.149C29.1885 25.149 29.3714 25.149 29.5543 25.149V24.8297C29.4965 24.8297 29.4388 24.8297 29.3906 24.82C28.8323 24.82 26.9936 24.8491 25.5881 25.6425" fill="#D41C21"></path><path d="M29.5641 24.7326C29.5641 24.6165 29.5834 23.6682 29.0828 23.2618C28.5533 22.8264 28.4571 22.4393 28.5341 22.2168C28.6111 21.9942 28.8421 22.091 29.0154 22.0232C29.1887 21.9555 29.3909 21.8297 29.3909 21.4427C29.3909 21.0556 28.8903 20.775 28.3512 20.775C28.3512 20.775 25.8771 20.6686 25.5787 24.6358V25.5164C26.4162 25.0229 27.6195 24.7132 28.9577 24.7132C29.1598 24.7132 29.3524 24.7132 29.5545 24.7326" fill="#D41C21"></path><path d="M27.6678 25.8064C27.6678 25.7193 27.6004 25.6516 27.5138 25.6516H27.0902C27.0036 25.6516 26.9362 25.7193 26.9362 25.8064V27.5965C26.9362 27.6836 27.0036 27.7514 27.0902 27.7514H27.5138C27.6004 27.7514 27.6678 27.6836 27.6678 27.5965V25.8064Z" fill="white"></path><path d="M30.893 15.1333C30.71 15.0946 30.7004 15.2688 30.7004 15.2688L30.4405 19.0812C30.4405 19.0812 29.7185 18.7619 28.7558 18.7619C27.7931 18.7619 27.6295 18.8877 27.2637 18.9845C27.2059 19.0038 27.0422 19.0135 26.9749 19.0232C26.9075 19.0232 26.7438 19.0038 26.6861 18.9845C26.3202 18.8877 26.1566 18.7619 25.1939 18.7619C24.2312 18.7619 23.5092 19.0812 23.5092 19.0812L23.2493 15.2688C23.2493 15.2688 23.2493 15.0946 23.0568 15.1333C22.8931 15.172 22.922 15.3365 22.922 15.3365L23.23 19.6328C23.23 19.6328 24.4045 19.2844 25.1939 19.2844C25.9833 19.2844 26.3202 19.4006 26.5802 19.4876C26.7727 19.5554 26.9075 19.565 26.9749 19.565C27.0422 19.565 27.177 19.5554 27.3696 19.4876C27.6295 19.4006 27.9664 19.2844 28.7558 19.2844C29.5452 19.2844 30.71 19.6328 30.71 19.6328L31.0181 15.3365C31.0181 15.3365 31.0566 15.172 30.893 15.1333Z" fill="white"></path><path d="M26.0495 14.7756C25.6837 14.7369 25.5874 14.7176 25.1638 14.7176C24.7402 14.7176 23.7294 14.9885 23.4502 15.153L23.6909 18.7236C23.6909 18.7236 24.6247 18.4623 25.1542 18.4623C25.6837 18.4623 26.1265 18.472 26.8581 18.7139V14.8724C26.7811 14.8627 26.3672 14.8047 26.0398 14.7756" fill="white"></path><path d="M27.9556 14.7756C28.3215 14.7369 28.4177 14.7176 28.8413 14.7176C29.2649 14.7176 30.2757 14.9885 30.5549 15.153L30.3142 18.7236C30.3142 18.7236 29.3804 18.4623 28.8413 18.4623C28.3022 18.4623 27.869 18.472 27.1374 18.7139V14.8724C27.2144 14.8627 27.6283 14.8047 27.9556 14.7756Z" fill="white"></path></svg> 